<svg width="380" height="130" viewBox="0 0 380 130" fill="none" xmlns="http://www.w3.org/2000/svg">
<mask id="path-1-outside-1_8_30" maskUnits="userSpaceOnUse" x="0" y="0" width="380" height="130" fill="black">
<rect fill="white" width="380" height="130"/>
<path d="M46.5625 65.3687H32.6172L27.168 96.5992H10L24.8242 11.2867L53.0664 11.3453C62.5195 11.3453 69.7852 13.5719 74.8633 18.025C79.9805 22.4781 82.2461 28.6695 81.6602 36.5992C80.8398 48.318 74.5898 56.4625 62.9102 61.0328L74.9219 95.6617V96.5992H56.6406L46.5625 65.3687ZM35.0781 51.1305L47.8516 51.2476C52.3828 51.1695 56.1133 49.9586 59.043 47.6148C62.0117 45.232 63.7891 42.0094 64.375 37.9469C64.9219 34.1578 64.3164 31.189 62.5586 29.0406C60.8008 26.8922 58.0078 25.7398 54.1797 25.5836L39.5312 25.525L35.0781 51.1305ZM120.508 96.5992C120 94.9976 119.785 93.0836 119.863 90.857C115.098 95.6226 109.707 97.9273 103.691 97.7711C98.1445 97.6929 93.5352 95.8961 89.8633 92.3804C86.2305 88.8258 84.5312 84.4508 84.7656 79.2554C85.0391 72.3414 87.9297 67.0484 93.4375 63.3765C98.9844 59.6656 106.406 57.8101 115.703 57.8101L123.438 57.9273L124.258 54.1187C124.492 52.8297 124.551 51.5992 124.434 50.4273C124.238 48.5914 123.535 47.1656 122.324 46.15C121.152 45.0953 119.59 44.5484 117.637 44.5094C115.059 44.4312 112.871 45.0758 111.074 46.443C109.277 47.7711 108.125 49.7047 107.617 52.2437L91.0352 52.3023C91.3086 46.2476 94.082 41.3453 99.3555 37.5953C104.668 33.8062 111.211 31.9508 118.984 32.0289C126.172 32.1851 131.797 34.3336 135.859 38.4742C139.922 42.5758 141.621 47.8687 140.957 54.3531L136.094 84.7047L135.801 88.4547C135.723 91.2281 136.055 93.5719 136.797 95.4859L136.738 96.5992H120.508ZM107.793 84.939C112.559 85.0953 116.719 83.025 120.273 78.7281L122.324 67.7711L116.582 67.7125C110.488 67.8687 106.094 69.7242 103.398 73.2789C102.422 74.5679 101.816 76.15 101.582 78.025C101.27 80.1344 101.699 81.814 102.871 83.064C104.082 84.275 105.723 84.9 107.793 84.939ZM174.648 84.1773C177.695 84.2554 180.234 83.4351 182.266 81.7164C184.297 79.9586 185.625 77.6344 186.25 74.7437L201.777 74.6851C201.504 79.1383 200.098 83.1422 197.559 86.6969C195.059 90.2515 191.699 93.025 187.48 95.0172C183.301 97.0094 178.887 97.9469 174.238 97.8297C166.543 97.7125 160.449 95.0562 155.957 89.8609C151.465 84.6656 149.297 77.7515 149.453 69.1187L149.629 65.8961L149.688 65.2515C150.742 54.939 154.219 46.775 160.117 40.7594C166.016 34.7047 173.301 31.7945 181.973 32.0289C189.121 32.1851 194.785 34.5289 198.965 39.0601C203.184 43.5523 205.254 49.4898 205.176 56.8726H189.766C189.766 53.4742 189.023 50.7984 187.539 48.8453C186.055 46.8922 183.828 45.8375 180.859 45.6812C172.969 45.4469 168.184 51.2086 166.504 62.9664C165.918 67.2242 165.703 70.8179 165.859 73.7476C166.25 80.5836 169.18 84.0601 174.648 84.1773ZM225.625 96.5992H208.984L220 33.2008H236.641L225.625 96.5992ZM221.934 17.0875C221.855 14.4703 222.715 12.3023 224.512 10.5836C226.309 8.86483 228.477 8.00545 231.016 8.00545C233.516 7.92733 235.684 8.68904 237.52 10.2906C239.355 11.8922 240.312 13.9625 240.391 16.5015C240.469 18.9234 239.648 21.0328 237.93 22.8297C236.25 24.6265 234.043 25.564 231.309 25.6422C228.848 25.7203 226.68 24.9781 224.805 23.4156C222.969 21.8531 222.012 19.7437 221.934 17.0875ZM265.82 33.1422L264.414 40.6422C269.492 34.7437 275.645 31.8726 282.871 32.0289C288.848 32.1461 293.262 34.3336 296.113 38.5914C298.965 42.8492 300 48.7476 299.219 56.2867L292.539 96.5992H276.016L282.812 56.1109C283.008 54.5875 283.047 53.2008 282.93 51.9508C282.422 47.9664 279.922 45.9156 275.43 45.7984C271.094 45.6422 267.207 47.6539 263.77 51.8336L255.859 96.5992H239.336L250.352 33.2008L265.82 33.1422ZM308.711 64.8414C309.883 55.0367 313.066 47.0875 318.262 40.9937C323.496 34.8609 330.078 31.8531 338.008 31.9703C344.766 32.1265 349.805 34.568 353.125 39.2945L355.293 33.1422L370.469 33.2008L360.098 94.4312C358.965 102.869 355.371 109.548 349.316 114.47C343.262 119.392 335.762 121.775 326.816 121.619C322.441 121.541 318.262 120.584 314.277 118.748C310.293 116.951 307.012 114.47 304.434 111.306L312.637 101.228C316.309 105.877 320.918 108.279 326.465 108.435C330.762 108.591 334.434 107.459 337.48 105.037C340.527 102.654 342.598 99.275 343.691 94.9L344.629 91.0914C340.02 95.7008 334.844 97.9273 329.102 97.7711C322.93 97.6929 318.027 95.4078 314.395 90.9156C310.762 86.3844 308.77 80.5054 308.418 73.2789C308.301 70.8961 308.398 68.0836 308.711 64.8414ZM324.941 71.7555C324.941 75.4273 325.703 78.3765 327.227 80.6031C328.789 82.7906 331.035 83.9429 333.965 84.0601C338.457 84.2164 342.441 82.3023 345.918 78.3179L350.84 51.482C349.16 47.8101 346.055 45.8961 341.523 45.7398C337.305 45.6226 333.73 47.3219 330.801 50.8375C327.871 54.3531 326.035 59.0211 325.293 64.8414C325.02 67.693 324.902 69.9976 324.941 71.7555Z"/>
</mask>
<path d="M46.5625 65.3687H32.6172L27.168 96.5992H10L24.8242 11.2867L53.0664 11.3453C62.5195 11.3453 69.7852 13.5719 74.8633 18.025C79.9805 22.4781 82.2461 28.6695 81.6602 36.5992C80.8398 48.318 74.5898 56.4625 62.9102 61.0328L74.9219 95.6617V96.5992H56.6406L46.5625 65.3687ZM35.0781 51.1305L47.8516 51.2476C52.3828 51.1695 56.1133 49.9586 59.043 47.6148C62.0117 45.232 63.7891 42.0094 64.375 37.9469C64.9219 34.1578 64.3164 31.189 62.5586 29.0406C60.8008 26.8922 58.0078 25.7398 54.1797 25.5836L39.5312 25.525L35.0781 51.1305ZM120.508 96.5992C120 94.9976 119.785 93.0836 119.863 90.857C115.098 95.6226 109.707 97.9273 103.691 97.7711C98.1445 97.6929 93.5352 95.8961 89.8633 92.3804C86.2305 88.8258 84.5312 84.4508 84.7656 79.2554C85.0391 72.3414 87.9297 67.0484 93.4375 63.3765C98.9844 59.6656 106.406 57.8101 115.703 57.8101L123.438 57.9273L124.258 54.1187C124.492 52.8297 124.551 51.5992 124.434 50.4273C124.238 48.5914 123.535 47.1656 122.324 46.15C121.152 45.0953 119.59 44.5484 117.637 44.5094C115.059 44.4312 112.871 45.0758 111.074 46.443C109.277 47.7711 108.125 49.7047 107.617 52.2437L91.0352 52.3023C91.3086 46.2476 94.082 41.3453 99.3555 37.5953C104.668 33.8062 111.211 31.9508 118.984 32.0289C126.172 32.1851 131.797 34.3336 135.859 38.4742C139.922 42.5758 141.621 47.8687 140.957 54.3531L136.094 84.7047L135.801 88.4547C135.723 91.2281 136.055 93.5719 136.797 95.4859L136.738 96.5992H120.508ZM107.793 84.939C112.559 85.0953 116.719 83.025 120.273 78.7281L122.324 67.7711L116.582 67.7125C110.488 67.8687 106.094 69.7242 103.398 73.2789C102.422 74.5679 101.816 76.15 101.582 78.025C101.27 80.1344 101.699 81.814 102.871 83.064C104.082 84.275 105.723 84.9 107.793 84.939ZM174.648 84.1773C177.695 84.2554 180.234 83.4351 182.266 81.7164C184.297 79.9586 185.625 77.6344 186.25 74.7437L201.777 74.6851C201.504 79.1383 200.098 83.1422 197.559 86.6969C195.059 90.2515 191.699 93.025 187.48 95.0172C183.301 97.0094 178.887 97.9469 174.238 97.8297C166.543 97.7125 160.449 95.0562 155.957 89.8609C151.465 84.6656 149.297 77.7515 149.453 69.1187L149.629 65.8961L149.688 65.2515C150.742 54.939 154.219 46.775 160.117 40.7594C166.016 34.7047 173.301 31.7945 181.973 32.0289C189.121 32.1851 194.785 34.5289 198.965 39.0601C203.184 43.5523 205.254 49.4898 205.176 56.8726H189.766C189.766 53.4742 189.023 50.7984 187.539 48.8453C186.055 46.8922 183.828 45.8375 180.859 45.6812C172.969 45.4469 168.184 51.2086 166.504 62.9664C165.918 67.2242 165.703 70.8179 165.859 73.7476C166.25 80.5836 169.18 84.0601 174.648 84.1773ZM225.625 96.5992H208.984L220 33.2008H236.641L225.625 96.5992ZM221.934 17.0875C221.855 14.4703 222.715 12.3023 224.512 10.5836C226.309 8.86483 228.477 8.00545 231.016 8.00545C233.516 7.92733 235.684 8.68904 237.52 10.2906C239.355 11.8922 240.312 13.9625 240.391 16.5015C240.469 18.9234 239.648 21.0328 237.93 22.8297C236.25 24.6265 234.043 25.564 231.309 25.6422C228.848 25.7203 226.68 24.9781 224.805 23.4156C222.969 21.8531 222.012 19.7437 221.934 17.0875ZM265.82 33.1422L264.414 40.6422C269.492 34.7437 275.645 31.8726 282.871 32.0289C288.848 32.1461 293.262 34.3336 296.113 38.5914C298.965 42.8492 300 48.7476 299.219 56.2867L292.539 96.5992H276.016L282.812 56.1109C283.008 54.5875 283.047 53.2008 282.93 51.9508C282.422 47.9664 279.922 45.9156 275.43 45.7984C271.094 45.6422 267.207 47.6539 263.77 51.8336L255.859 96.5992H239.336L250.352 33.2008L265.82 33.1422ZM308.711 64.8414C309.883 55.0367 313.066 47.0875 318.262 40.9937C323.496 34.8609 330.078 31.8531 338.008 31.9703C344.766 32.1265 349.805 34.568 353.125 39.2945L355.293 33.1422L370.469 33.2008L360.098 94.4312C358.965 102.869 355.371 109.548 349.316 114.47C343.262 119.392 335.762 121.775 326.816 121.619C322.441 121.541 318.262 120.584 314.277 118.748C310.293 116.951 307.012 114.47 304.434 111.306L312.637 101.228C316.309 105.877 320.918 108.279 326.465 108.435C330.762 108.591 334.434 107.459 337.48 105.037C340.527 102.654 342.598 99.275 343.691 94.9L344.629 91.0914C340.02 95.7008 334.844 97.9273 329.102 97.7711C322.93 97.6929 318.027 95.4078 314.395 90.9156C310.762 86.3844 308.77 80.5054 308.418 73.2789C308.301 70.8961 308.398 68.0836 308.711 64.8414ZM324.941 71.7555C324.941 75.4273 325.703 78.3765 327.227 80.6031C328.789 82.7906 331.035 83.9429 333.965 84.0601C338.457 84.2164 342.441 82.3023 345.918 78.3179L350.84 51.482C349.16 47.8101 346.055 45.8961 341.523 45.7398C337.305 45.6226 333.73 47.3219 330.801 50.8375C327.871 54.3531 326.035 59.0211 325.293 64.8414C325.02 67.693 324.902 69.9976 324.941 71.7555Z" stroke="white" stroke-width="16" mask="url(#path-1-outside-1_8_30)"/>
</svg>
