<svg width="367" height="141" viewBox="0 0 367 141" fill="none" xmlns="http://www.w3.org/2000/svg">
<path id="racing" d="M36.5625 81.8828H25.4297L20.1562 112H0.117188L14.8828 26.6875L45 26.7461C54.6484 26.7461 62.0703 29.0117 67.2656 33.543C72.5 38.0352 74.8438 44.1875 74.2969 52C73.8672 58.1719 72.0898 63.2891 68.9648 67.3516C65.8398 71.375 61.4648 74.5586 55.8398 76.9023L67.3242 111.004V112H45.9375L36.5625 81.8828ZM28.125 66.0039L39.8438 66.1211C43.0469 66.1211 45.8203 65.3398 48.1641 63.7773C50.5469 62.2148 52.2461 60.0859 53.2617 57.3906C54.2773 54.6562 54.5703 52.0195 54.1406 49.4805C53.3594 45.1445 50.5859 42.8594 45.8203 42.625L32.2266 42.5664L28.125 66.0039ZM111.504 112C110.957 110.477 110.684 108.562 110.684 106.258C106.348 111.023 101.172 113.328 95.1562 113.172C89.6484 113.094 85.0781 111.258 81.4453 107.664C77.8125 104.07 76.1133 99.7148 76.3477 94.5977C76.543 87.7227 79.4141 82.4492 84.9609 78.7773C90.5078 75.0664 98.0859 73.2109 107.695 73.2109L114.141 73.3281L114.844 69.7539L115.078 66.6484C114.922 63.0938 113.145 61.2578 109.746 61.1406C105.527 61.0625 102.93 63.3867 101.953 68.1133L82.6172 68.1719C82.8125 63.9141 84.1992 60.2227 86.7773 57.0977C89.3555 53.9336 92.8516 51.5117 97.2656 49.832C101.719 48.1133 106.445 47.3125 111.445 47.4297C116.25 47.5469 120.449 48.5625 124.043 50.4766C127.676 52.3516 130.391 54.9883 132.188 58.3867C133.984 61.7461 134.668 65.6328 134.238 70.0469L129.492 99.8711L129.199 103.504C129.043 106.395 129.414 108.855 130.312 110.887L130.254 112H111.504ZM100.488 99.2266C104.434 99.3828 107.891 97.6445 110.859 94.0117L112.793 83.8164L107.812 83.7578C104.727 83.8359 102.07 84.7539 99.8438 86.5117C97.6172 88.2305 96.3086 90.5938 95.918 93.6016C95.7227 95.2031 96.0156 96.5312 96.7969 97.5859C97.6172 98.6016 98.8477 99.1484 100.488 99.2266ZM167.461 97.9961C170.234 98.0742 172.402 97.3125 173.965 95.7109C175.527 94.0703 176.523 91.9609 176.953 89.3828L195 89.3242C194.766 93.9727 193.379 98.1328 190.84 101.805C188.34 105.477 184.941 108.328 180.645 110.359C176.387 112.352 171.816 113.289 166.934 113.172C158.496 113.016 151.992 109.988 147.422 104.09C142.852 98.1523 140.996 90.4961 141.855 81.1211L142.031 79.7148C142.734 73.3086 144.531 67.6445 147.422 62.7227C150.312 57.7617 154.102 53.9336 158.789 51.2383C163.516 48.543 168.789 47.2734 174.609 47.4297C181.992 47.5859 187.812 49.9492 192.07 54.5195C196.367 59.0508 198.438 65.1836 198.281 72.918L180.234 72.8594C180.43 66.1406 178.027 62.7227 173.027 62.6055C166.23 62.3711 162.324 68.0938 161.309 79.7734L160.781 85.75L160.723 87.9766C160.723 94.5391 162.969 97.8789 167.461 97.9961ZM219.492 112H200.156L211.172 48.6016H230.508L219.492 112ZM212.871 32.6055C212.793 29.7539 213.789 27.3711 215.859 25.457C217.969 23.543 220.508 22.5859 223.477 22.5859C226.484 22.5859 228.984 23.4453 230.977 25.1641C233.008 26.8828 234.062 29.1289 234.141 31.9023C234.219 34.793 233.223 37.1953 231.152 39.1094C229.082 40.9844 226.543 41.9219 223.535 41.9219C220.605 41.9219 218.105 41.082 216.035 39.4023C214.004 37.6836 212.949 35.418 212.871 32.6055ZM260.332 48.543L258.984 56.1602C264.062 50.1445 270.176 47.2148 277.324 47.3711C283.184 47.4883 287.539 49.6758 290.391 53.9336C293.281 58.1523 294.336 64.207 293.555 72.0977L286.875 112H267.539L274.277 71.9805C274.434 70.6133 274.473 69.3633 274.395 68.2305C274.121 64.5195 271.934 62.6641 267.832 62.6641C264.434 62.5859 261.328 64.0898 258.516 67.1758L250.605 112H231.328L242.344 48.6016L260.332 48.543ZM301.23 80.1836C301.973 73.8164 303.711 68.0547 306.445 62.8984C309.219 57.7422 312.676 53.8555 316.816 51.2383C320.957 48.582 325.645 47.293 330.879 47.3711C337.246 47.5273 342.051 49.8125 345.293 54.2266L347.344 48.543L365.156 48.6016L354.785 109.539C353.613 118.133 349.844 124.91 343.477 129.871C337.109 134.832 329.18 137.195 319.688 136.961C315.469 136.883 311.387 136.043 307.441 134.441C303.496 132.84 300.117 130.418 297.305 127.176L306.445 115.809C309.844 120.105 314.258 122.312 319.688 122.43C328.242 122.586 333.672 118.035 335.977 108.777L336.445 106.844C332.07 111.141 327.246 113.25 321.973 113.172C317.91 113.133 314.336 112.117 311.25 110.125C308.164 108.094 305.742 105.184 303.984 101.395C302.227 97.6055 301.23 93.3867 300.996 88.7383C300.84 86.3945 300.918 83.543 301.23 80.1836ZM320.273 86.4531C320.273 90.0469 320.918 92.8398 322.207 94.832C323.496 96.8242 325.371 97.8594 327.832 97.9375C331.465 98.0938 334.766 96.6875 337.734 93.7188L342.715 66.8242C341.152 64.0898 338.535 62.6836 334.863 62.6055C331.113 62.5273 327.969 64.1289 325.43 67.4102C322.891 70.6523 321.289 74.9297 320.625 80.2422C320.391 82.7031 320.273 84.7734 320.273 86.4531Z" fill="white"/>
</svg>
