<svg width="391" height="120" fill="none" xmlns="http://www.w3.org/2000/svg"><mask id="a" maskUnits="userSpaceOnUse" x="0" y="0" width="391" height="120" fill="#000"><path fill="#fff" d="M0 0h391v120H0z"/><path d="M10 87V15.1h57.1c4.067 0 7.567 1.467 10.5 4.4 2.933 2.933 4.4 6.4 4.4 10.4v18.6c0 4-1.467 7.467-4.4 10.4-2.933 2.933-6.433 4.4-10.5 4.4h-.7L82 81.7V87H66L46.1 63.3l-20.6.1V87H10zm18.8-39.3h37.5V30.6H25.5v17.1h3.3zM106.72 87c-4 0-7.434-1.433-10.3-4.3-2.8-2.867-4.2-6.267-4.2-10.2V50.3h43.5v-6h-43.5V29h44.3c4 0 7.4 1.433 10.2 4.3 2.866 2.867 4.3 6.267 4.3 10.2V87h-44.3zm4.1-15.3h24.9v-8h-28.2v8h3.3zM172.538 87c-3.934 0-7.334-1.433-10.201-4.3-2.866-2.867-4.299-6.267-4.299-10.2v-29c0-3.933 1.433-7.333 4.299-10.2 2.867-2.867 6.267-4.3 10.201-4.3h44.2v15.3h-43.401v27.4h43.501V87h-44.3zm55.131 0V29h15.3v58h-15.3zm0-61.6V10h15.3v15.4h-15.3zM254.724 87V29h44.3c4 0 7.4 1.433 10.2 4.3 2.867 2.867 4.3 6.267 4.3 10.2V87h-15.3V44.3h-28.2V87h-15.3zm76.553 22.9V94.5h34.4V87h-29c-4 0-7.434-1.433-10.3-4.3-2.867-2.867-4.3-6.267-4.3-10.2v-29c0-3.933 1.433-7.333 4.3-10.2 2.866-2.867 6.3-4.3 10.3-4.3h29.8c4 0 7.4 1.433 10.2 4.3 2.866 2.867 4.3 6.267 4.3 10.2v51.9c0 4-1.434 7.4-4.3 10.2-2.8 2.867-6.2 4.3-10.2 4.3h-35.2zm9.4-38.2h25V44.3h-28.3v27.4h3.3z"/></mask><path d="M10 87V15.1h57.1c4.067 0 7.567 1.467 10.5 4.4 2.933 2.933 4.4 6.4 4.4 10.4v18.6c0 4-1.467 7.467-4.4 10.4-2.933 2.933-6.433 4.4-10.5 4.4h-.7L82 81.7V87H66L46.1 63.3l-20.6.1V87H10zm18.8-39.3h37.5V30.6H25.5v17.1h3.3zM106.72 87c-4 0-7.434-1.433-10.3-4.3-2.8-2.867-4.2-6.267-4.2-10.2V50.3h43.5v-6h-43.5V29h44.3c4 0 7.4 1.433 10.2 4.3 2.866 2.867 4.3 6.267 4.3 10.2V87h-44.3zm4.1-15.3h24.9v-8h-28.2v8h3.3zM172.538 87c-3.934 0-7.334-1.433-10.201-4.3-2.866-2.867-4.299-6.267-4.299-10.2v-29c0-3.933 1.433-7.333 4.299-10.2 2.867-2.867 6.267-4.3 10.201-4.3h44.2v15.3h-43.401v27.4h43.501V87h-44.3zm55.131 0V29h15.3v58h-15.3zm0-61.6V10h15.3v15.4h-15.3zM254.724 87V29h44.3c4 0 7.4 1.433 10.2 4.3 2.867 2.867 4.3 6.267 4.3 10.2V87h-15.3V44.3h-28.2V87h-15.3zm76.553 22.9V94.5h34.4V87h-29c-4 0-7.434-1.433-10.3-4.3-2.867-2.867-4.3-6.267-4.3-10.2v-29c0-3.933 1.433-7.333 4.3-10.2 2.866-2.867 6.3-4.3 10.3-4.3h29.8c4 0 7.4 1.433 10.2 4.3 2.866 2.867 4.3 6.267 4.3 10.2v51.9c0 4-1.434 7.4-4.3 10.2-2.8 2.867-6.2 4.3-10.2 4.3h-35.2zm9.4-38.2h25V44.3h-28.3v27.4h3.3z" stroke="#fff" stroke-width="20" mask="url(#a)"/></svg>